<?xml version="1.0" standalone="no"?>
<!DOCTYPE svg PUBLIC "-//W3C//DTD SVG 20010904//EN"
 "http://www.w3.org/TR/2001/REC-SVG-20010904/DTD/svg10.dtd">
<svg version="1.0" xmlns="http://www.w3.org/2000/svg" viewBox="0 0 128.000000 128.000000" fill="inherit" width="25" height="25">
  <g transform="translate(0.000000,128.000000) scale(0.100000,-0.100000)"
  fill="#000000" stroke="none">
  <path d="M410 927 c-19 -7 -44 -27 -57 -46 -23 -33 -23 -39 -23 -302 l0 -269
  65 0 65 0 0 100 0 100 180 0 180 0 0 -100 0 -100 65 0 65 0 0 268 c0 287 -2
  298 -53 336 -26 20 -43 21 -240 23 -148 2 -223 -1 -247 -10z m410 -197 l0 -80
  -180 0 -180 0 0 80 0 80 180 0 180 0 0 -80z"/>
  </g>
</svg>
