<?xml version="1.0" standalone="no"?>
<!DOCTYPE svg PUBLIC "-//W3C//DTD SVG 20010904//EN"
 "http://www.w3.org/TR/2001/REC-SVG-20010904/DTD/svg10.dtd">
<svg xmlns="http://www.w3.org/2000/svg" viewBox="0 0 90 90"
 fill="inherit" width="90" height="90">
 <path d="M64.7,38.9c0,2.1-1.7,3.9-3.9,3.9S57,41,57,38.9s1.7-3.9,3.9-3.9S64.7,36.8,64.7,38.9z M25.9,35c-2.1,0-3.9,1.7-3.9,3.9
   s1.7,3.9,3.9,3.9s3.9-1.7,3.9-3.9S28,35,25.9,35z M75.1,23.5c4.8,6.6,7.7,14.7,7.7,23.5c0,22-17.8,39.7-39.7,39.7S3.3,68.9,3.3,47
   S21.1,7.2,43.1,7.2c6.3,0,12.3,1.5,17.6,4.1l8.1-8.1l4.7,4.7L78,3.3l8.7,8.7L75.1,23.5z M71.1,39c0-4.4-3.6-8-8-8h-41
   c-4.4,0-8,3.6-8,8s3.6,8,8,8h41C67.5,47,71.1,43.4,71.1,39z">
 </path>
</svg>
